# xmcd
#
# Track frame offsets:
#	150
#	12104
#	22462
#	33951
#	46241
#	57284
#	69708
#	82076
#	93715
#	104550
#	117091
#	129155
#	141259
#	152206
#	164259
#	176462
#	186550
#	199238
#	210430
#	222346
#	232001
#	243011
#	254904
#	265823
#	277584
#
# Disc length: 3854 seconds
# Revision: 0
# Processed by: cddbd v1.5.2PL0 Copyright (c) Steve Scherf et al.
# Submitted via: dBpowerAMP V12.0
#
DISCID=720f0c19
DTITLE=Various Artist - Soul Breakout '58
DYEAR=1958
DGENRE=Rhythm and Blues
TTITLE0=Bobby ''Blue'' Bland - Little Boy Blue
TTITLE1=Sam Cooke - Love You Most Of All
TTITLE2=James Brown and The Famous Flames - Try Me
TTITLE3=Jackie Wilson - Lonely Teardrops
TTITLE4=Dee Clark - Nobody But You
TTITLE5=Jerry Butler and The Impressions - For Your Precious Love
TTITLE6=Sam Cooke - You Send Me
TTITLE7=Clyde McPhatter - A Lover's Question
TTITLE8=Wade Flemons and The Newcomers - Here I Stand
TTITLE9=Sam Cooke - Win Your Love For Me
TTITLE10=Bobby Freeman - Need Your Love
TTITLE11=Little Willie John - Talk To Me, Talk To Me
TTITLE12=Gene Allison - Everything Will Be Alright
TTITLE13=Brook Benton - A Million Miles From Nowhere
TTITLE14=The Pastels - Been So Long
TTITLE15=Sam Cooke - I'll Come Running Back To You
TTITLE16=Ed Townsend - For Your Love
TTITLE17=Jackie Wilson - To Be Loved
TTITLE18=Sam Cooke - (I Love You) For Sentimental Reasons
TTITLE19=Gene Allison - You Can Make It If You Try
TTITLE20=Chuck Willis - What Am I Living For
TTITLE21=Tommy Edwards - It's All In The Game
TTITLE22=Nappy Brown - It Don't Hurt No More
TTITLE23=Billy Myles - The Joker (That's What They Call Me)
TTITLE24=The Impressions featuring Jerry Butler - Come Back My Love
EXTD=
EXTT0=
EXTT1=
EXTT2=
EXTT3=
EXTT4=
EXTT5=
EXTT6=
EXTT7=
EXTT8=
EXTT9=
EXTT10=
EXTT11=
EXTT12=
EXTT13=
EXTT14=
EXTT15=
EXTT16=
EXTT17=
EXTT18=
EXTT19=
EXTT20=
EXTT21=
EXTT22=
EXTT23=
EXTT24=
PLAYORDER=
